<?xml version="1.0" encoding="UTF-8" standalone="no"?>
<!-- Created with Inkscape (http://www.inkscape.org/) -->

<svg
   xmlns:dc="http://purl.org/dc/elements/1.1/"
   xmlns:cc="http://creativecommons.org/ns#"
   xmlns:rdf="http://www.w3.org/1999/02/22-rdf-syntax-ns#"
   xmlns:svg="http://www.w3.org/2000/svg"
   xmlns="http://www.w3.org/2000/svg"
   xmlns:sodipodi="http://sodipodi.sourceforge.net/DTD/sodipodi-0.dtd"
   xmlns:inkscape="http://www.inkscape.org/namespaces/inkscape"
   width="210mm"
   height="297mm"
   viewBox="0 0 210 297"
   version="1.1"
   id="svg8"
   inkscape:version="0.92.4 (5da689c313, 2019-01-14)"
   sodipodi:docname="draw_icons.svg">
  <defs
     id="defs2" />
  <sodipodi:namedview
     id="base"
     pagecolor="#ffffff"
     bordercolor="#666666"
     borderopacity="1.0"
     inkscape:pageopacity="0.0"
     inkscape:pageshadow="2"
     inkscape:zoom="0.35"
     inkscape:cx="136.38136"
     inkscape:cy="-158.38634"
     inkscape:document-units="mm"
     inkscape:current-layer="layer1"
     showgrid="false"
     inkscape:window-width="1920"
     inkscape:window-height="1020"
     inkscape:window-x="0"
     inkscape:window-y="31"
     inkscape:window-maximized="1" />
  <metadata
     id="metadata5">
    <rdf:RDF>
      <cc:Work
         rdf:about="">
        <dc:format>image/svg+xml</dc:format>
        <dc:type
           rdf:resource="http://purl.org/dc/dcmitype/StillImage" />
        <dc:title></dc:title>
      </cc:Work>
    </rdf:RDF>
  </metadata>
  <g
     inkscape:label="Layer 1"
     inkscape:groupmode="layer"
     id="layer1">
    <path
       id="path826"
       d="m 164.51,232.55001 h -9.52 c -1.76,0 -3.18,1.4218 -3.18,3.17499 v 9.525 c 0,1.7532 1.42,3.175 3.18,3.175 h 9.52 c 1.76,0 3.18,-1.4218 3.18,-3.175 v -9.525 c 0,-1.75319 -1.42,-3.17499 -3.18,-3.17499 z m -15.87,5.55624 h -8.41 c -0.94,-2.32568 -3.22,-3.96875 -5.88,-3.96875 -3.51,0 -6.35,2.84262 -6.35,6.35 0,3.50739 2.84,6.35001 6.35,6.35001 2.66,0 4.94,-1.64307 5.88,-3.96876 h 7.91 c -5.49,3.2266 -9.51,8.66378 -10.87,15.08125 h 4.9 c 1.12,-4.12849 3.65,-7.66068 7.05,-10.07665 -0.37,-0.80169 -0.58,-1.68573 -0.58,-2.62335 z m -4.77,23.01875 h -9.52 c -1.75,0 -3.18,1.42181 -3.18,3.175 v 9.525 c 0,1.7532 1.43,3.175 3.18,3.175 h 9.52 c 1.76,0 3.18,-1.4218 3.18,-3.175 V 264.3 c 0,-1.75319 -1.42,-3.175 -3.18,-3.175 z m 41.28,-26.9875 c -2.66,0 -4.94,1.64307 -5.88,3.96875 h -8.41 V 245.25 c 0,0.93762 -0.21,1.82166 -0.58,2.62335 3.4,2.41597 5.93,5.94816 7.05,10.07665 h 4.9 c -1.36,-6.41747 -5.38,-11.85465 -10.87,-15.08125 h 7.91 c 0.94,2.32569 3.22,3.96876 5.88,3.96876 3.51,0 6.35,-2.84262 6.35,-6.35001 0,-3.50738 -2.84,-6.35 -6.35,-6.35 z m 0,26.9875 h -9.53 c -1.75,0 -3.17,1.42181 -3.17,3.175 v 9.525 c 0,1.7532 1.42,3.175 3.17,3.175 h 9.53 c 1.75,0 3.17,-1.4218 3.17,-3.175 V 264.3 c 0,-1.75319 -1.42,-3.175 -3.17,-3.175 z"
       inkscape:connector-curvature="0"
       style="stroke-width:0.09921873;fill:#ed5342;fill-opacity:1"
       inkscape:export-xdpi="25.434654"
       inkscape:export-ydpi="25.434654"
       inkscape:export-filename="/home/jsnadeau/Documents/repos/gameoff2020/Libraries/foundsdk/editor/Assets/icons.png" />
    <path
       id="path848"
       d="m 126.23649,260.47861 -25.71665,-25.71664 c -0.773893,-0.7739 -1.788003,-1.16022 -2.802103,-1.16022 -1.01411,0 -2.02821,0.38632 -2.80086,1.16022 l -10.10142,10.10142 -10.67101,-10.67101 c -0.77265,-0.77388 -2.0282,-0.77388 -2.80086,0 l -2.80086,2.79962 c -0.77265,0.77389 -0.77265,2.02822 0,2.8021 l 10.67225,10.67101 -11.73341,11.7334 c -4.64209,4.64209 -4.64209,12.16678 0,16.80887 l 14.51073,14.51074 c 2.32168,2.32043 5.36276,3.48188 8.40382,3.48188 3.04232,0 6.0834,-1.16021 8.40506,-3.48188 l 27.435313,-27.43531 c 1.54654,-1.54777 1.54654,-4.05642 0,-5.6042 z m -14.39063,8.78768 H 72.163287 c 0.1684,-0.47548 0.44205,-0.98811 0.92,-1.46482 l 1.62826,-1.62826 10.10515,-10.10515 7.25722,7.256 c 1.54654,1.54653 4.05517,1.54653 5.60172,0 1.54654,-1.54654 1.54654,-4.05519 0,-5.60173 l -7.25723,-7.25599 7.29933,-7.29932 20.114933,20.1137 z"
       inkscape:connector-curvature="0"
       style="stroke-width:0.12382228;fill:#ed5342;fill-opacity:1"
       inkscape:export-xdpi="25.434654"
       inkscape:export-ydpi="25.434654"
       inkscape:export-filename="/home/jsnadeau/Documents/repos/gameoff2020/Libraries/foundsdk/editor/Assets/icons.png" />
    <path
       id="path859"
       d="m 65.543132,315.74972 28.95928,13.13697 c 0.84538,0.38416 1.80141,0.38416 2.64679,0 l 28.959278,-13.13697 c 2.05751,-0.93365 2.05751,-4.04291 0,-4.97656 L 97.150442,297.63494 a 3.1834823,3.1834823 0 0 0 -2.64678,0 l -28.96053,13.13698 c -2.05751,0.93365 -2.05751,4.04415 0,4.9778 z m 60.566598,10.97504 -7.2218,-3.27337 -20.095208,9.10898 c -0.93987,0.42642 -1.93816,0.64275 -2.96629,0.64275 -1.02814,0 -2.02519,-0.21633 -2.96629,-0.64275 l -20.093979,-9.10898 -7.22303,3.27337 c -2.05751,0.9324 -2.05751,4.04042 0,4.97283 l 28.95928,13.12703 c 0.84538,0.38291 1.80141,0.38291 2.64679,0 l 28.960527,-13.12703 c 2.0575,-0.93241 2.0575,-4.04043 0,-4.97283 z m 0,15.88819 -7.19445,-3.26093 -20.122558,9.12142 c -0.93987,0.42642 -1.93816,0.64274 -2.966289,0.64274 -1.02814,0 -2.025191,-0.21632 -2.96629,-0.64274 l -20.12133,-9.12142 -7.19568,3.26093 c -2.05751,0.93241 -2.05751,4.04043 0,4.97283 l 28.95928,13.12704 c 0.84538,0.38291 1.80141,0.38291 2.64679,0 l 28.960527,-13.12704 c 2.0575,-0.9324 2.0575,-4.04042 0,-4.97283 z"
       inkscape:connector-curvature="0"
       style="stroke-width:0.12432078;fill:#ed5342;fill-opacity:1"
       inkscape:export-xdpi="25.434654"
       inkscape:export-ydpi="25.434654"
       inkscape:export-filename="/home/jsnadeau/Documents/repos/gameoff2020/Libraries/foundsdk/editor/Assets/icons.png" />
    <path
       id="path870"
       d="m 219.8474,245.28465 1.9891,-3.9782 3.9782,-1.9891 -3.9782,-1.9891 -1.9891,-3.9782 -1.9891,3.9782 -3.9782,1.9891 3.9782,1.9891 z m -17.9019,7.9564 3.31433,-6.62992 6.63117,-3.31558 -6.63117,-3.31558 -3.31433,-6.62992 -3.31434,6.62992 -6.63116,3.31558 6.63116,3.31558 z m 43.76019,15.9128 -3.31433,6.62991 -6.63116,3.31559 6.63116,3.31557 3.31433,6.62992 3.31434,-6.62992 6.63117,-3.31557 -6.63117,-3.31559 z m 8.7794,-24.08924 -10.54845,-10.54845 c -0.77575,-0.77824 -1.79392,-1.16611 -2.81209,-1.16611 -1.01817,0 -2.03634,0.38787 -2.81333,1.16611 l -45.14511,45.14511 c -1.55399,1.55398 -1.55399,4.07268 0,5.62542 l 10.54844,10.54844 c 0.777,0.777 1.79516,1.16487 2.81209,1.16487 1.01817,0 2.03634,-0.38787 2.81334,-1.16487 l 45.14511,-45.14634 c 1.55398,-1.5515 1.55398,-4.07145 0,-5.62418 z m -17.79872,13.57933 -6.32907,-6.32906 10.76601,-10.76601 6.32906,6.32907 z"
       inkscape:connector-curvature="0"
       style="stroke-width:0.12431874;fill:#ed5342;fill-opacity:1"
       inkscape:export-xdpi="25.434654"
       inkscape:export-ydpi="25.434654"
       inkscape:export-filename="/home/jsnadeau/Documents/repos/gameoff2020/Libraries/foundsdk/editor/Assets/icons.png" />
    <path
       id="path881"
       d="m 20.764957,271.80556 c -4.987666,0.32074 -9.514111,2.22034 -12.082536,8.98825 -0.292149,0.77202 -0.99455,1.2407 -1.813811,1.2407 -1.381181,0 -5.65153,-3.4399 -6.86861,-4.27035 C 0.001221,288.00181 4.716653,297 15.914041,297 c 9.430818,0 15.912803,-5.44143 15.912803,-14.94187 0,-0.38663 -0.0808,-0.75586 -0.12059,-1.13503 z m 36.160587,-38.45675 c -1.88467,0 -3.65124,0.83418 -4.99885,2.04504 -25.411995,22.7006 -28.056256,23.23393 -28.056256,29.91606 0,1.70317 0.404038,3.32677 1.085306,4.81113 l 7.93402,6.61128 c 0.89634,0.22377 1.82003,0.37668 2.7835,0.37668 7.72144,0 12.1969,-5.65277 26.25114,-31.88278 0.91747,-1.78398 1.72803,-3.71092 1.72803,-5.71742 0,-3.59406 -3.23229,-6.15999 -6.72689,-6.15999 z"
       inkscape:connector-curvature="0"
       style="stroke-width:0.12431873;fill:#ed5342;fill-opacity:1"
       inkscape:export-xdpi="25.434654"
       inkscape:export-ydpi="25.434654"
       inkscape:export-filename="/home/jsnadeau/Documents/repos/gameoff2020/Libraries/foundsdk/editor/Assets/icons.png" />
    <path
       id="path892"
       d="m 153.39634,297.9769 c -12.35705,2.41175 -22.31481,12.34463 -24.75141,24.6644 -4.59971,23.24718 16.37249,40.57691 32.17311,38.12787 5.12184,-0.79563 7.63303,-6.78768 5.28345,-11.39983 -2.87171,-5.64397 1.23073,-12.23273 7.57087,-12.23273 h 9.90803 c 4.45053,0 8.05571,-3.67978 8.06814,-8.11788 -0.0622,-19.59227 -17.88914,-35.00752 -38.25219,-31.04183 z m -13.46347,39.15971 c -2.20041,0 -3.97813,-1.77774 -3.97813,-3.97813 0,-2.20041 1.77772,-3.97814 3.97813,-3.97814 2.2004,0 3.97813,1.77773 3.97813,3.97814 0,2.20039 -1.77773,3.97813 -3.97813,3.97813 z m 3.97813,-15.91252 c -2.20041,0 -3.97813,-1.77773 -3.97813,-3.97813 0,-2.2004 1.77772,-3.97812 3.97813,-3.97812 2.2004,0 3.97812,1.77772 3.97812,3.97812 0,2.2004 -1.77772,3.97813 -3.97812,3.97813 z m 15.91251,-7.95625 c -2.20041,0 -3.97813,-1.77773 -3.97813,-3.97814 0,-2.20039 1.77772,-3.97813 3.97813,-3.97813 2.2004,0 3.97813,1.77774 3.97813,3.97813 0,2.20041 -1.77773,3.97814 -3.97813,3.97814 z m 15.91251,7.95625 c -2.2004,0 -3.97813,-1.77773 -3.97813,-3.97813 0,-2.2004 1.77773,-3.97812 3.97813,-3.97812 2.2004,0 3.97813,1.77772 3.97813,3.97812 0,2.2004 -1.77773,3.97813 -3.97813,3.97813 z"
       inkscape:connector-curvature="0"
       style="stroke-width:0.1243165;fill:#ed5342;fill-opacity:1"
       inkscape:export-xdpi="25.434654"
       inkscape:export-ydpi="25.434654"
       inkscape:export-filename="/home/jsnadeau/Documents/repos/gameoff2020/Libraries/foundsdk/editor/Assets/icons.png" />
    <path
       id="path903"
       d="m 36.14509,308.94137 15.91499,15.91499 -34.558705,34.55872 -14.1894802,1.56639 c -1.89956,0.21009 -3.50447998,-1.39607 -3.29313998,-3.29563 L 1.5975648,343.48642 Z m 25.75836,-2.36947 -7.47265,-7.47266 c -2.33094,-2.33093 -6.1114,-2.33093 -8.44233,0 l -7.0301,7.0301 15.91499,15.91498 7.03009,-7.03009 c 2.33094,-2.33218 2.33094,-6.1114 0,-8.44233 z"
       inkscape:connector-curvature="0"
       style="stroke-width:0.12431642;fill:#ed5342;fill-opacity:1"
       inkscape:export-xdpi="25.434654"
       inkscape:export-ydpi="25.434654"
       inkscape:export-filename="/home/jsnadeau/Documents/repos/gameoff2020/Libraries/foundsdk/editor/Assets/icons.png" />
    <path
       id="path914"
       d="m 201.84353,332.52361 a 3.978813,3.978813 0 0 0 -2.5162,2.51621 L 192,357.02181 l 0.58305,0.58305 11.54794,-11.54794 c -0.0821,-0.31826 -0.19518,-0.62532 -0.19518,-0.96969 0,-2.19671 1.78149,-3.97819 3.97819,-3.97819 2.19671,0 3.9782,1.78148 3.9782,3.97819 0,2.19671 -1.78149,3.9782 -3.9782,3.9782 -0.34436,0 -0.65143,-0.11313 -0.96968,-0.19519 l -11.54794,11.54795 0.58181,0.58181 21.98199,-7.32734 a 3.976078,3.976078 0 0 0 2.51621,-2.5162 l 4.11121,-10.45145 -12.29261,-12.29261 z m 36.06107,-31.65398 -22.76396,24.8003 12.16456,12.16456 24.8003,-22.76396 c 10.55712,-9.33258 -4.94167,-24.67597 -14.2009,-14.2009 z"
       inkscape:connector-curvature="0"
       style="stroke-width:0.12431847;fill:#ed5342;fill-opacity:1"
       inkscape:export-xdpi="25.434654"
       inkscape:export-ydpi="25.434654"
       inkscape:export-filename="/home/jsnadeau/Documents/repos/gameoff2020/Libraries/foundsdk/editor/Assets/icons.png" />
  </g>
</svg>
